<svg width="174" height="100" viewBox="0 0 174 100" fill="none" xmlns="http://www.w3.org/2000/svg">
<g clip-path="url(#clip0_1_371)">
<path d="M-4.57764e-05 57.2674V18.4107H24.0853V23.8523H5.89668V35.0104H22.5562V40.452H5.89668V51.8301H24.3556V57.2717H-4.57764e-05V57.2674Z" fill="white"/>
<path d="M36.6982 57.2674C35.0593 57.2674 33.7583 56.7681 32.7952 55.7695C31.8322 54.7709 31.3464 53.438 31.3464 51.7709V34.7269H23.9206V29.8989H31.3464V20.8522H36.9728V29.8989H45.0027V34.7269H36.9728V50.768C36.9728 51.8767 37.4839 52.4352 38.5019 52.4352H44.1283V57.2632H36.7025L36.6982 57.2674Z" fill="white"/>
<path d="M47.3512 57.2674V18.4107H58.4392L66.7944 53.273H67.6687L76.0238 18.4107H87.1119V57.2674H81.3757V22.6294H80.5013L72.2011 57.2674H62.262L53.9618 22.6294H53.0874V57.2674H47.3512Z" fill="white"/>
<path d="M102.293 58.046C100.071 58.046 98.0141 57.4917 96.1217 56.3788C94.2294 55.2702 92.7087 53.6665 91.5598 51.5762C90.4108 49.4859 89.8406 46.9598 89.8406 43.9978V43.1643C89.8406 40.2404 90.4066 37.7227 91.5344 35.6155C92.6622 33.504 94.1744 31.8961 96.0668 30.7875C97.9592 29.6789 100.033 29.1203 102.293 29.1203C104.042 29.1203 105.507 29.3404 106.69 29.7847C107.873 30.229 108.849 30.7917 109.613 31.4772C110.378 32.1627 110.961 32.8736 111.362 33.614H112.236V18.4023H117.863V57.259H112.346V53.3745H111.472C110.779 54.5593 109.732 55.6341 108.333 56.5946C106.931 57.5551 104.92 58.0375 102.297 58.0375L102.293 58.046ZM103.877 53.0487C106.314 53.0487 108.329 52.2532 109.913 50.6622C111.497 49.0713 112.287 46.7948 112.287 43.8328V43.3335C112.287 40.4096 111.506 38.1543 109.938 36.5591C108.371 34.9681 106.352 34.1726 103.877 34.1726C101.402 34.1726 99.4798 34.9681 97.8958 36.5591C96.3118 38.1501 95.5219 40.4096 95.5219 43.3335V43.8328C95.5219 46.7948 96.3118 49.0713 97.8958 50.6622C99.4798 52.2532 101.474 53.0487 103.877 53.0487Z" fill="white"/>
<path d="M130.417 58.046C128.486 58.046 126.767 57.7117 125.255 57.0474C123.743 56.3831 122.543 55.4014 121.652 54.1066C120.76 52.8118 120.313 51.2377 120.313 49.3886C120.313 47.5395 120.756 45.94 121.652 44.696C122.543 43.4562 123.764 42.5211 125.31 41.8906C126.856 41.2601 128.613 40.947 130.581 40.947H138.772V39.1698C138.772 37.5789 138.299 36.301 137.352 35.3405C136.406 34.3799 134.949 33.8976 132.985 33.8976C131.021 33.8976 129.58 34.3588 128.562 35.2854C127.544 36.2121 126.868 37.4138 126.543 38.8948L121.301 37.1726C121.736 35.6917 122.437 34.3503 123.405 33.1486C124.368 31.9469 125.652 30.9737 127.257 30.2332C128.858 29.4927 130.788 29.1246 133.048 29.1246C136.541 29.1246 139.291 30.0301 141.293 31.8453C143.296 33.6606 144.297 36.229 144.297 39.5634V50.8315C144.297 51.9401 144.808 52.4987 145.826 52.4987H148.119V57.2717H143.912C142.637 57.2717 141.602 56.9374 140.799 56.2731C139.997 55.6087 139.6 54.699 139.6 53.5523V53.3873H138.78C138.489 53.9416 138.049 54.589 137.471 55.3295C136.888 56.0699 136.03 56.7089 134.902 57.2463C133.775 57.7836 132.279 58.0502 130.425 58.0502L130.417 58.046ZM131.236 53.3238C133.492 53.3238 135.312 52.6679 136.698 51.352C138.079 50.0402 138.772 48.2334 138.772 45.94V45.3857H130.907C129.411 45.3857 128.212 45.7115 127.303 46.3589C126.391 47.0063 125.939 47.9584 125.939 49.2194C125.939 50.4803 126.412 51.4789 127.358 52.2152C128.305 52.9557 129.597 53.3238 131.236 53.3238Z" fill="white"/>
<path d="M151.883 77.5272V72.53H166.904C167.922 72.53 168.433 71.9757 168.433 70.8628V53.2645H167.558C167.229 54.005 166.73 54.7159 166.055 55.4014C165.379 56.0869 164.479 56.6496 163.351 57.0939C162.223 57.5382 160.804 57.7583 159.089 57.7583C157.049 57.7583 155.228 57.297 153.628 56.3704C152.027 55.4437 150.768 54.132 149.86 52.431C148.947 50.73 148.495 48.7116 148.495 46.3801V29.8947H154.122V45.9358C154.122 48.3054 154.705 50.0529 155.871 51.1827C157.036 52.3125 158.654 52.8753 160.732 52.8753C163.026 52.8753 164.872 52.0967 166.274 50.5438C167.677 48.9909 168.378 46.7313 168.378 43.7693V29.8904H174.004V72.0222C174.004 73.6894 173.523 75.018 172.555 76.0209C171.588 77.0195 170.27 77.5188 168.597 77.5188H151.887L151.883 77.5272Z" fill="white"/>
<path d="M0.0717545 99.7588V98.4979C0.0717545 97.6347 0.223819 96.9408 0.523724 96.4245C0.82363 95.9083 1.24181 95.4894 1.78248 95.172C2.31893 94.8547 2.96521 94.5796 3.71286 94.3511L4.64637 94.0592C5.15747 93.8984 5.60522 93.6995 5.9896 93.4626C6.37399 93.2256 6.67389 92.9252 6.88932 92.5655C7.10474 92.2016 7.21457 91.7573 7.21457 91.2242V91.1565C7.21457 90.3948 6.95268 89.794 6.43313 89.3497C5.90935 88.9054 5.24195 88.6853 4.42672 88.6853C3.56502 88.6853 2.86383 88.9181 2.31893 89.3835C1.77403 89.849 1.5037 90.5556 1.5037 91.4992V91.7404H0.139339V91.5161C0.139339 90.6402 0.325196 89.8955 0.701133 89.2862C1.07707 88.6769 1.58395 88.2114 2.23023 87.8941C2.8765 87.5767 3.60726 87.4202 4.42249 87.4202C5.23773 87.4202 5.96004 87.5767 6.58942 87.8856C7.21879 88.1987 7.70878 88.6303 8.05937 89.1804C8.40997 89.7347 8.58738 90.3779 8.58738 91.1184V91.2749C8.58738 92.0577 8.43531 92.7051 8.12696 93.2214C7.8186 93.7376 7.3962 94.1523 6.85975 94.4739C6.31908 94.7954 5.6897 95.0747 4.96317 95.3032L4.04656 95.5952C3.46787 95.7814 2.99055 95.9718 2.61039 96.1749C2.23023 96.378 1.94299 96.6319 1.75291 96.945C1.55861 97.2581 1.46568 97.677 1.46568 98.2059V98.4979H8.49022V99.7588H0.0717545Z" fill="white"/>
<path d="M13.935 100C12.5833 100 11.5104 99.5938 10.7121 98.7814C9.91374 97.969 9.51246 96.7503 9.51246 95.1255V92.2905C9.51246 90.6783 9.91374 89.4597 10.7121 88.643C11.5104 87.8264 12.5875 87.4159 13.935 87.4159C15.2825 87.4159 16.3765 87.8264 17.1748 88.643C17.9732 89.4597 18.3744 90.6783 18.3744 92.2905V95.1255C18.3744 96.7503 17.9732 97.969 17.1748 98.7814C16.3765 99.5938 15.2951 100 13.935 100ZM13.935 98.7391C14.9572 98.7391 15.7218 98.426 16.2329 97.8039C16.744 97.1819 16.9974 96.3103 16.9974 95.1932V92.2016C16.9974 91.0845 16.7355 90.2171 16.216 89.5993C15.6922 88.9815 14.9361 88.6726 13.935 88.6726C12.9339 88.6726 12.182 88.9858 11.6625 89.6078C11.1472 90.2298 10.8895 91.093 10.8895 92.2016V95.1932C10.8895 96.323 11.1429 97.1946 11.654 97.8124C12.1651 98.4302 12.9255 98.7391 13.935 98.7391Z" fill="white"/>
<path d="M19.3629 99.7588V98.4979C19.3629 97.6347 19.5149 96.9408 19.8148 96.4245C20.1147 95.9083 20.5329 95.4894 21.0736 95.172C21.61 94.8547 22.2563 94.5796 23.004 94.3511L23.9375 94.0592C24.4486 93.8984 24.8963 93.6995 25.2807 93.4626C25.6651 93.2256 25.965 92.9252 26.1804 92.5655C26.3959 92.2016 26.5057 91.7573 26.5057 91.2242V91.1565C26.5057 90.3948 26.2438 89.794 25.7242 89.3497C25.2005 88.9054 24.5331 88.6853 23.7178 88.6853C22.8561 88.6853 22.1549 88.9181 21.61 89.3835C21.0651 89.849 20.7948 90.5556 20.7948 91.4992V91.7404H19.4347V91.5161C19.4347 90.6402 19.6205 89.8955 19.9965 89.2862C20.3724 88.6769 20.8793 88.2114 21.5256 87.8941C22.1718 87.5767 22.9026 87.4202 23.7178 87.4202C24.5331 87.4202 25.2554 87.5767 25.8848 87.8856C26.5141 88.1987 27.0041 88.6303 27.3547 89.1804C27.7053 89.7347 27.8827 90.3779 27.8827 91.1184V91.2749C27.8827 92.0577 27.7306 92.7051 27.4223 93.2214C27.1139 93.7376 26.6915 94.1523 26.1551 94.4739C25.6144 94.7954 24.985 95.0747 24.2585 95.3032L23.3419 95.5952C22.7632 95.7814 22.2859 95.9718 21.9057 96.1749C21.5256 96.378 21.2383 96.6319 21.0483 96.945C20.8539 97.2581 20.761 97.677 20.761 98.2059V98.4979H27.7856V99.7588H19.3671H19.3629Z" fill="white"/>
<path d="M32.9177 100C32.0434 100 31.2915 99.8308 30.6537 99.4881C30.0201 99.1495 29.5258 98.6756 29.1752 98.0705C28.8247 97.4655 28.6472 96.7673 28.6472 95.9718V95.7645H30.0243V95.921C30.0243 96.8308 30.2862 97.5289 30.8057 98.0113C31.3253 98.4937 32.018 98.7391 32.8797 98.7391C33.7879 98.7391 34.4975 98.481 35.0044 97.9605C35.5155 97.4401 35.7689 96.7334 35.7689 95.8321V95.6756C35.7689 94.8124 35.524 94.1227 35.0297 93.6107C34.5355 93.0987 33.8977 92.8406 33.1163 92.8406C32.6643 92.8406 32.2884 92.9125 31.9927 93.0564C31.697 93.2002 31.4647 93.378 31.2957 93.5938C31.1267 93.8053 30.9831 94.0127 30.8691 94.2073H28.9978V87.6529H36.8207V88.9139H30.3749V93.0987H30.6114C30.7339 92.8702 30.9071 92.6417 31.131 92.4259C31.3506 92.2059 31.6505 92.0239 32.0222 91.8716C32.3982 91.7235 32.8628 91.6473 33.4162 91.6473C34.1089 91.6473 34.7341 91.8081 35.2959 92.1297C35.8576 92.4513 36.3054 92.9125 36.6391 93.5134C36.9728 94.1142 37.1417 94.8293 37.1417 95.6587V95.8491C37.1417 96.6657 36.9728 97.3893 36.6306 98.0113C36.2885 98.6333 35.8027 99.1199 35.1691 99.4711C34.5355 99.8223 33.7794 100 32.9051 100H32.9177Z" fill="white"/>
<path d="M0.532188 78.5724V66.4706H7.86509V67.7824H1.95991V71.8276H7.38777V73.1435H1.95991V77.2564H7.94534V78.5724H0.532188Z" fill="white"/>
<path d="M8.95065 78.5724V70.1181H10.2601V71.1717H10.4966C10.6572 70.8713 10.9148 70.5962 11.2781 70.3423C11.6414 70.0885 12.1525 69.9615 12.8072 69.9615C13.4619 69.9615 13.9772 70.1054 14.3785 70.3931C14.7798 70.6808 15.0713 71.0321 15.2529 71.4467H15.4894C15.6837 71.0321 15.9752 70.6808 16.3638 70.3931C16.7566 70.1054 17.3015 69.9615 18.0069 69.9615C18.5603 69.9615 19.0503 70.0758 19.4685 70.3085C19.8866 70.5412 20.2203 70.8713 20.4653 71.3029C20.7103 71.7345 20.8328 72.2507 20.8328 72.8515V78.5724H19.4896V72.97C19.4896 72.4072 19.3291 71.9587 19.0038 71.6287C18.6786 71.2986 18.2308 71.1378 17.6521 71.1378C17.0396 71.1378 16.537 71.3409 16.1484 71.7429C15.7555 72.1449 15.5612 72.7288 15.5612 73.4905V78.5724H14.218V72.97C14.218 72.4072 14.0575 71.9587 13.7322 71.6287C13.407 71.2986 12.9592 71.1378 12.3806 71.1378C11.7681 71.1378 11.2654 71.3409 10.8768 71.7429C10.484 72.1449 10.2897 72.7288 10.2897 73.4905V78.5724H8.94643H8.95065Z" fill="white"/>
<path d="M22.4717 82.0294V70.1181H23.7812V71.5187H24.0177C24.2332 71.0913 24.5795 70.7105 25.0653 70.3762C25.5468 70.0419 26.2184 69.8769 27.0801 69.8769C27.794 69.8769 28.4487 70.0546 29.0443 70.4058C29.6399 70.757 30.1172 71.2563 30.472 71.8995C30.8311 72.5469 31.0085 73.3212 31.0085 74.2352V74.4595C31.0085 75.3565 30.8311 76.1351 30.4805 76.7952C30.1299 77.4511 29.6568 77.9546 29.0612 78.2973C28.4656 78.6443 27.8067 78.8178 27.0801 78.8178C26.5015 78.8178 26.0115 78.7416 25.6102 78.5851C25.2089 78.4285 24.8794 78.2296 24.6302 77.9884C24.381 77.7473 24.1867 77.4976 24.0515 77.2437H23.815V82.0336H22.4717V82.0294ZM26.7211 77.6034C27.5828 77.6034 28.284 77.3241 28.8204 76.7656C29.3569 76.207 29.6272 75.4242 29.6272 74.4214V74.2648C29.6272 73.262 29.3569 72.4834 28.8204 71.9207C28.2798 71.3621 27.5828 71.0829 26.7211 71.0829C25.8594 71.0829 25.1709 71.3621 24.6218 71.9207C24.0726 72.4792 23.7981 73.262 23.7981 74.2648V74.4214C23.7981 75.4242 24.0726 76.207 24.6218 76.7656C25.1709 77.3241 25.8721 77.6034 26.7211 77.6034Z" fill="white"/>
<path d="M32.2968 78.5724V70.1181H33.6063V71.1548H33.8428C33.9906 70.7867 34.2187 70.5158 34.5229 70.3424C34.827 70.1689 35.2325 70.0842 35.7309 70.0842H36.7194V71.3283H35.6465C35.0467 71.3283 34.5609 71.4975 34.1934 71.8403C33.8259 72.1788 33.6401 72.7077 33.6401 73.4228V78.5766H32.2968V78.5724Z" fill="white"/>
<path d="M41.2686 78.8136C40.428 78.8136 39.6931 78.6316 39.0594 78.2677C38.4258 77.9038 37.9316 77.3961 37.581 76.736C37.2304 76.0759 37.053 75.3184 37.053 74.4552V74.2479C37.053 73.372 37.2304 72.6061 37.581 71.9503C37.9316 71.2944 38.4216 70.7824 39.0426 70.4185C39.6677 70.0546 40.3816 69.8727 41.1841 69.8727C41.9867 69.8727 42.6583 70.0419 43.2581 70.3847C43.8579 70.7232 44.331 71.214 44.6689 71.8445C45.0111 72.4792 45.1801 73.2239 45.1801 74.0744V74.6964H38.3921C38.4258 75.6062 38.7173 76.317 39.258 76.8333C39.8029 77.3453 40.4829 77.6034 41.2982 77.6034C42.012 77.6034 42.5612 77.4384 42.9498 77.0999C43.3342 76.7656 43.6298 76.3678 43.8326 75.9066L44.99 76.4778C44.821 76.8333 44.5845 77.1929 44.2846 77.5484C43.9847 77.9038 43.5918 78.2042 43.1103 78.4454C42.6287 78.6866 42.012 78.8093 41.2644 78.8093L41.2686 78.8136ZM38.4132 73.5751H43.8241C43.7777 72.7923 43.5158 72.1788 43.0342 71.7429C42.5527 71.3029 41.936 71.0871 41.1884 71.0871C40.4407 71.0871 39.8029 71.3071 39.3171 71.7429C38.8314 72.183 38.5272 72.7923 38.4174 73.5751H38.4132Z" fill="white"/>
<path d="M46.4262 78.5724V70.1181H47.7356V71.5525H47.9722C48.1538 71.1505 48.4621 70.7824 48.8972 70.4566C49.3323 70.1265 49.9786 69.9658 50.8276 69.9658C51.4527 69.9658 52.0103 70.0969 52.5045 70.3635C52.9987 70.6301 53.3916 71.0194 53.6872 71.5398C53.9829 72.0603 54.1308 72.6992 54.1308 73.4609V78.5766H52.7875V73.5624C52.7875 72.7204 52.5806 72.1111 52.1666 71.7302C51.7526 71.3494 51.1951 71.159 50.4897 71.159C49.6829 71.159 49.0282 71.4256 48.5255 71.9545C48.0228 72.4834 47.7694 73.2747 47.7694 74.3241V78.5766H46.4262V78.5724Z" fill="white"/>
<path d="M59.2629 78.8136C58.5491 78.8136 57.8901 78.6401 57.2903 78.2931C56.6905 77.9461 56.2132 77.4468 55.8626 76.791C55.512 76.1351 55.3346 75.3565 55.3346 74.4553V74.231C55.3346 73.3339 55.512 72.5554 55.8626 71.9037C56.2132 71.2521 56.6863 70.7528 57.2819 70.4016C57.8775 70.0504 58.5364 69.8727 59.2629 69.8727C59.8416 69.8727 60.3316 69.9488 60.7329 70.1054C61.1342 70.262 61.4594 70.4566 61.7129 70.6936C61.9621 70.9305 62.1564 71.1802 62.2916 71.4467H62.5281V66.4664H63.8713V78.5681H62.5619V77.1676H62.3253C62.0973 77.5949 61.7467 77.9758 61.2693 78.31C60.792 78.6443 60.1246 78.8136 59.2629 78.8136ZM59.622 77.6034C60.4837 77.6034 61.1849 77.3241 61.7213 76.7656C62.2578 76.207 62.5281 75.4242 62.5281 74.4214V74.2648C62.5281 73.262 62.2578 72.4834 61.7213 71.9207C61.1806 71.3621 60.4837 71.0829 59.622 71.0829C58.7603 71.0829 58.0718 71.3621 57.5226 71.9207C56.9735 72.4792 56.699 73.262 56.699 74.2648V74.4214C56.699 75.4242 56.9735 76.207 57.5226 76.7656C58.0718 77.3241 58.7729 77.6034 59.622 77.6034Z" fill="white"/>
<path d="M69.3795 78.8136C68.5389 78.8136 67.8039 78.6316 67.1703 78.2677C66.5367 77.9038 66.0425 77.3961 65.6919 76.736C65.3413 76.0759 65.1639 75.3184 65.1639 74.4552V74.2479C65.1639 73.372 65.3413 72.6061 65.6919 71.9503C66.0425 71.2944 66.5325 70.7824 67.1534 70.4185C67.7786 70.0546 68.4924 69.8727 69.295 69.8727C70.0976 69.8727 70.7692 70.0419 71.369 70.3847C71.9688 70.7232 72.4419 71.214 72.7798 71.8445C73.122 72.4792 73.2909 73.2239 73.2909 74.0744V74.6964H66.5029C66.5367 75.6062 66.8282 76.317 67.3688 76.8333C67.9137 77.3453 68.5938 77.6034 69.4091 77.6034C70.1229 77.6034 70.672 77.4384 71.0606 77.0999C71.445 76.7656 71.7407 76.3678 71.9435 75.9066L73.1008 76.4778C72.9319 76.8333 72.6953 77.1929 72.3954 77.5484C72.0955 77.9038 71.7027 78.2042 71.2212 78.4454C70.7396 78.6866 70.1229 78.8093 69.3753 78.8093L69.3795 78.8136ZM66.5198 73.5751H71.9308C71.8843 72.7923 71.6224 72.1788 71.1409 71.7429C70.6594 71.3029 70.0427 71.0871 69.295 71.0871C68.5473 71.0871 67.9095 71.3071 67.4238 71.7429C66.938 72.183 66.6339 72.7923 66.524 73.5751H66.5198Z" fill="white"/>
<path d="M81.1983 78.5724C80.721 78.5724 80.3577 78.4412 80.1 78.1746C79.8466 77.908 79.7156 77.5484 79.7156 77.0871V71.3113H77.215V70.1181H79.7156V67.1096H81.0589V70.1181H83.7791V71.3113H81.0589V76.8798C81.0589 77.2268 81.2236 77.4003 81.5531 77.4003H83.4074V78.5766H81.1983V78.5724Z" fill="white"/>
<path d="M87.9989 78.7289C87.3991 78.7289 86.8458 78.5977 86.3389 78.3312C85.8362 78.0646 85.4392 77.6711 85.1477 77.1464C84.8605 76.6217 84.7126 75.987 84.7126 75.238V70.1223H86.0559V75.1365C86.0559 75.9785 86.2629 76.5878 86.6768 76.9687C87.0908 77.3495 87.6483 77.5399 88.3537 77.5399C89.1479 77.5399 89.7984 77.2733 90.3095 76.7444C90.8206 76.2155 91.074 75.4242 91.074 74.3748V70.1223H92.4173V78.5766H91.1078V77.1422H90.8713C90.6896 77.5441 90.3771 77.9123 89.9378 78.2381C89.4942 78.5681 88.848 78.7289 87.9989 78.7289Z" fill="white"/>
<path d="M97.6804 78.5724V66.4706H100.401L103.564 77.6584H103.784L106.948 66.4706H109.668V78.5724H108.291V67.4227H108.055L104.908 78.5724H102.441L99.294 67.4227H99.0574V78.5724H97.6804Z" fill="white"/>
<path d="M115.083 78.8136C114.243 78.8136 113.508 78.6316 112.874 78.2677C112.241 77.9038 111.746 77.3961 111.396 76.736C111.045 76.0759 110.868 75.3184 110.868 74.4552V74.2479C110.868 73.372 111.045 72.6061 111.396 71.9503C111.746 71.2944 112.236 70.7824 112.857 70.4185C113.482 70.0546 114.196 69.8727 114.999 69.8727C115.801 69.8727 116.473 70.0419 117.073 70.3847C117.673 70.7232 118.146 71.214 118.484 71.8445C118.826 72.4792 118.995 73.2239 118.995 74.0744V74.6964H112.207C112.241 75.6062 112.532 76.317 113.073 76.8333C113.618 77.3453 114.298 77.6034 115.113 77.6034C115.827 77.6034 116.376 77.4384 116.764 77.0999C117.149 76.7656 117.445 76.3678 117.647 75.9066L118.805 76.4778C118.636 76.8333 118.399 77.1929 118.099 77.5484C117.799 77.9038 117.407 78.2042 116.925 78.4454C116.443 78.6866 115.827 78.8093 115.079 78.8093L115.083 78.8136ZM112.224 73.5751H117.635C117.588 72.7923 117.326 72.1788 116.845 71.7429C116.363 71.3029 115.747 71.0871 114.999 71.0871C114.251 71.0871 113.613 71.3071 113.128 71.7429C112.642 72.183 112.338 72.7923 112.228 73.5751H112.224Z" fill="white"/>
<path d="M120.241 78.5724V70.1181H121.55V71.5525H121.787C121.969 71.1505 122.277 70.7824 122.712 70.4566C123.147 70.1265 123.793 69.9658 124.642 69.9658C125.267 69.9658 125.825 70.0969 126.319 70.3635C126.813 70.6301 127.206 71.0194 127.502 71.5398C127.798 72.0603 127.945 72.6992 127.945 73.4609V78.5766H126.602V73.5624C126.602 72.7204 126.395 72.1111 125.981 71.7302C125.567 71.3494 125.01 71.159 124.304 71.159C123.498 71.159 122.843 71.4256 122.34 71.9545C121.838 72.4834 121.584 73.2747 121.584 74.3241V78.5766H120.241V78.5724Z" fill="white"/>
<path d="M132.524 78.5724C132.047 78.5724 131.684 78.4412 131.426 78.1746C131.173 77.908 131.042 77.5484 131.042 77.0871V71.3113H128.541V70.1181H131.042V67.1096H132.385V70.1181H135.105V71.3113H132.385V76.8798C132.385 77.2268 132.55 77.4003 132.879 77.4003H134.734V78.5766H132.524V78.5724Z" fill="white"/>
<path d="M139.752 78.8136C138.911 78.8136 138.176 78.6316 137.542 78.2677C136.909 77.9038 136.415 77.3961 136.064 76.736C135.713 76.0759 135.536 75.3184 135.536 74.4552V74.2479C135.536 73.372 135.713 72.6061 136.064 71.9503C136.415 71.2944 136.905 70.7824 137.526 70.4185C138.151 70.0546 138.865 69.8727 139.667 69.8727C140.47 69.8727 141.141 70.0419 141.741 70.3847C142.341 70.7232 142.814 71.214 143.152 71.8445C143.494 72.4792 143.663 73.2239 143.663 74.0744V74.6964H136.875C136.909 75.6062 137.2 76.317 137.741 76.8333C138.286 77.3453 138.966 77.6034 139.781 77.6034C140.495 77.6034 141.044 77.4384 141.433 77.0999C141.817 76.7656 142.113 76.3678 142.316 75.9066L143.473 76.4778C143.304 76.8333 143.067 77.1929 142.768 77.5484C142.468 77.9038 142.075 78.2042 141.593 78.4454C141.112 78.6866 140.495 78.8093 139.747 78.8093L139.752 78.8136ZM136.892 73.5751H142.303C142.256 72.7923 141.995 72.1788 141.513 71.7429C141.031 71.3029 140.415 71.0871 139.667 71.0871C138.919 71.0871 138.282 71.3071 137.796 71.7429C137.31 72.183 137.006 72.7923 136.896 73.5751H136.892Z" fill="white"/>
<path d="M28.9979 0H0V4.46833H28.9979V0Z" fill="#7B57C4"/>
<path d="M57.9958 3.43323e-05H28.9979V4.46836H57.9958V3.43323e-05Z" fill="#F271E8"/>
<path d="M86.9978 3.43323e-05H58V4.46836H86.9978V3.43323e-05Z" fill="#FF4D00"/>
<path d="M115.996 3.43323e-05H86.9979V4.46836H115.996V3.43323e-05Z" fill="#8DD84B"/>
<path d="M144.998 3.43323e-05H116V4.46836H144.998V3.43323e-05Z" fill="#00C1DE"/>
<path d="M173.996 3.43323e-05H144.998V4.46836H173.996V3.43323e-05Z" fill="#FFD600"/>
</g>
<defs>
<clipPath id="clip0_1_371">
<rect width="174" height="100" fill="white"/>
</clipPath>
</defs>
</svg>
